<svg viewBox="0 0 714 714" xmlns="http://www.w3.org/2000/svg" xml:space="preserve" style="fill-rule:evenodd;clip-rule:evenodd;stroke-miterlimit:10"><path d="M581.182 71.429c34.352-.016 62.402 28.027 62.39 62.375l.016 436.591c-.019 34.302-28.093 62.375-62.391 62.383H144.599c-34.337 0-62.383-28.047-62.383-62.383l-.027-436.626c.023-34.282 28.104-62.363 62.379-62.394z" style="fill-rule:nonzero"/><path d="m255.186 483.111 44.186-44.185 17.952 17.952-44.186 44.185zm-24.133-24.131 44.187-44.187 17.95 17.95-44.187 44.187zm30.941-92.424 44.187-44.187 17.954 17.954-44.187 44.187zm-24.129-24.133 44.183-44.183 17.95 17.95-44.183 44.183zm140.638 8.089 44.181-44.185 17.365 17.364-44.18 44.184zm-24.72-24.719 44.183-44.183 17.95 17.95-44.183 44.183zm21.537-111.149 44.187-44.188 17.954 17.954-44.187 44.188zm-24.129-24.131 44.183-44.184 17.95 17.95-44.183 44.184z" style="fill:#f2f2f6;stroke:#f1f2f3;stroke-width:1.67px"/><path d="m285.708 469.443 100.029 100.021" style="fill:none;fill-rule:nonzero;stroke:#f1f2f3;stroke-width:4.17px;stroke-linecap:round"/><path d="M293.697 353.468 447.714 507.48M408.93 336.148l102.754 102.755M405.768 200.43l172.192 172.2" style="fill:none;fill-rule:nonzero;stroke:#f1f2f3;stroke-width:4.17px"/><path d="m145.502 329.237 115.379 115.379" style="fill:none;fill-rule:nonzero;stroke:#f1f2f3;stroke-width:4.17px;stroke-linecap:round"/><path d="m207.481 267.252 58.612 58.608m5.359-127.187L385.493 312.71m-47.757-180.311 43.896 43.904" style="fill:none;fill-rule:nonzero;stroke:#f1f2f3;stroke-width:4.17px"/><path d="M332.298 107.36c16.846-16.854 44.35-16.858 61.196 0l214.141 214.125c16.821 16.833 16.821 44.367 0 61.204L393.494 596.831c-16.846 16.837-44.354 16.837-61.2 0L118.127 382.689c-16.8-16.837-16.8-44.375 0-61.204z" style="fill:none;fill-rule:nonzero;stroke:#f1f2f3;stroke-width:12.5px"/><path d="m112.232 315.595 214.174-214.128c20.091-20.099 52.892-20.103 72.98 0L613.53 315.595c20.059 20.073 20.059 52.906-.001 72.985L399.385 602.724c-20.089 20.08-52.893 20.08-72.983 0L112.231 388.579l-.003-.004c-20.032-20.076-20.03-52.911.004-72.98M332.298 107.36 118.127 321.485c-16.8 16.829-16.8 44.367 0 61.204l214.167 214.142c16.846 16.837 44.354 16.837 61.2 0l214.141-214.142c16.821-16.837 16.821-44.371 0-61.204L393.494 107.36c-16.846-16.858-44.35-16.854-61.196 0" style="fill:#f1f2f3"/></svg>