<?xml version="1.0" encoding="UTF-8" standalone="no"?><!DOCTYPE svg PUBLIC "-//W3C//DTD SVG 1.1//EN" "http://www.w3.org/Graphics/SVG/1.1/DTD/svg11.dtd"><svg width="100%" height="100%" viewBox="0 0 714 714" version="1.1" xmlns="http://www.w3.org/2000/svg" xmlns:xlink="http://www.w3.org/1999/xlink" xml:space="preserve" xmlns:serif="http://www.serif.com/" style="fill-rule:evenodd;clip-rule:evenodd;stroke-miterlimit:10;"><g id="Mixer"><path id="BlackBackgroundShape" d="M581.182,71.429c34.352,-0.016 62.402,28.027 62.39,62.375l0.016,436.591c-0.019,34.302 -28.093,62.375 -62.391,62.383l-436.598,-0c-34.337,-0 -62.383,-28.047 -62.383,-62.383l-0.027,-436.626c0.023,-34.282 28.104,-62.363 62.379,-62.394l436.614,0.054Z" style="fill-rule:nonzero;"/><path d="M255.186,483.111l44.186,-44.185l17.952,17.952l-44.186,44.185l-17.952,-17.952Z" style="fill:#f2f2f6;stroke:#f1f2f3;stroke-width:1.67px;"/><path d="M231.053,458.98l44.187,-44.187l17.95,17.95l-44.187,44.187l-17.95,-17.95Z" style="fill:#f2f2f6;stroke:#f1f2f3;stroke-width:1.67px;"/><path d="M261.994,366.556l44.187,-44.187l17.954,17.954l-44.187,44.187l-17.954,-17.954Z" style="fill:#f2f2f6;stroke:#f1f2f3;stroke-width:1.67px;"/><path d="M237.865,342.423l44.183,-44.183l17.95,17.95l-44.183,44.183l-17.95,-17.95Z" style="fill:#f2f2f6;stroke:#f1f2f3;stroke-width:1.67px;"/><path d="M378.503,350.512l44.181,-44.185l17.365,17.364l-44.18,44.184l-17.366,-17.363Z" style="fill:#f2f2f6;stroke:#f1f2f3;stroke-width:1.67px;"/><path d="M353.783,325.793l44.183,-44.183l17.95,17.95l-44.183,44.183l-17.95,-17.95Z" style="fill:#f2f2f6;stroke:#f1f2f3;stroke-width:1.67px;"/><path d="M375.32,214.644l44.187,-44.188l17.954,17.954l-44.187,44.188l-17.954,-17.954Z" style="fill:#f2f2f6;stroke:#f1f2f3;stroke-width:1.67px;"/><path d="M351.191,190.513l44.183,-44.184l17.95,17.95l-44.183,44.184l-17.95,-17.95Z" style="fill:#f2f2f6;stroke:#f1f2f3;stroke-width:1.67px;"/><path d="M285.708,469.443l100.029,100.021" style="fill:none;fill-rule:nonzero;stroke:#f1f2f3;stroke-width:4.17px;stroke-linecap:round;"/><path d="M293.697,353.468l154.017,154.012" style="fill:none;fill-rule:nonzero;stroke:#f1f2f3;stroke-width:4.17px;"/><path d="M408.93,336.148l102.754,102.755" style="fill:none;fill-rule:nonzero;stroke:#f1f2f3;stroke-width:4.17px;"/><path d="M405.768,200.43l172.192,172.2" style="fill:none;fill-rule:nonzero;stroke:#f1f2f3;stroke-width:4.17px;"/><path d="M145.502,329.237l115.379,115.379" style="fill:none;fill-rule:nonzero;stroke:#f1f2f3;stroke-width:4.17px;stroke-linecap:round;"/><path d="M207.481,267.252l58.612,58.608" style="fill:none;fill-rule:nonzero;stroke:#f1f2f3;stroke-width:4.17px;"/><path d="M271.452,198.673l114.041,114.037" style="fill:none;fill-rule:nonzero;stroke:#f1f2f3;stroke-width:4.17px;"/><path d="M337.736,132.399l43.896,43.904" style="fill:none;fill-rule:nonzero;stroke:#f1f2f3;stroke-width:4.17px;"/><path d="M332.298,107.36c16.846,-16.854 44.35,-16.858 61.196,0l214.141,214.125c16.821,16.833 16.821,44.367 0,61.204l-214.141,214.142c-16.846,16.837 -44.354,16.837 -61.2,-0l-214.167,-214.142c-16.8,-16.837 -16.8,-44.375 0,-61.204l214.171,-214.125Z" style="fill:none;fill-rule:nonzero;stroke:#f1f2f3;stroke-width:12.5px;"/><path id="Outcurve" d="M112.232,315.595l214.174,-214.128c20.091,-20.099 52.892,-20.103 72.98,0l214.144,214.128c20.059,20.073 20.059,52.906 -0.001,72.985l-214.144,214.144c-20.089,20.08 -52.893,20.08 -72.983,0l-214.171,-214.145l-0.003,-0.004c-20.032,-20.076 -20.03,-52.911 0.004,-72.98Zm220.066,-208.235l-214.171,214.125c-16.8,16.829 -16.8,44.367 0,61.204l214.167,214.142c16.846,16.837 44.354,16.837 61.2,-0l214.141,-214.142c16.821,-16.837 16.821,-44.371 0,-61.204l-214.141,-214.125c-16.846,-16.858 -44.35,-16.854 -61.196,0Z" style="fill:#f1f2f3;"/></g></svg>