<svg viewBox="0 0 106 172" xmlns="http://www.w3.org/2000/svg" xml:space="preserve" style="fill-rule:evenodd;clip-rule:evenodd;stroke-linejoin:round;stroke-miterlimit:2"><path d="M58.772 0v43.261H99.38v26.876H58.772v43.904c0 9.921.515 16.284 1.565 19.104 1.057 2.806 3.001 5.056 5.873 6.746 3.79 2.274 8.109 3.415 12.991 3.415 8.666 0 17.282-2.834 25.85-8.461v26.998c-7.309 3.45-13.94 5.866-19.865 7.257-5.922 1.384-12.345 2.076-19.233 2.076-7.817 0-14.73-.984-20.746-2.966-6.019-1.982-11.144-4.802-15.394-8.446q-6.365-5.485-8.828-11.68c-1.635-4.107-2.455-10.078-2.455-17.902V70.137H-.397V45.904c6.728-2.174 12.497-5.31 17.275-9.382 4.805-4.082 8.651-8.978 11.544-14.699C31.326 16.103 33.325 8.836 34.421 0z" style="fill:#f0f0f0;fill-rule:nonzero"/></svg>