<?xml version="1.0" encoding="UTF-8" standalone="no"?>
<!DOCTYPE svg PUBLIC "-//W3C//DTD SVG 1.1//EN" "http://www.w3.org/Graphics/SVG/1.1/DTD/svg11.dtd">
<svg width="100%" height="100%" viewBox="0 0 172 56" version="1.1" xmlns="http://www.w3.org/2000/svg" xmlns:xlink="http://www.w3.org/1999/xlink" xml:space="preserve" xmlns:serif="http://www.serif.com/" style="fill-rule:evenodd;clip-rule:evenodd;stroke-linejoin:round;stroke-miterlimit:2;">
    <g id="BandCamp">
        <g id="B">
            <g id="g32">
                <g>
                    <clipPath id="_clip1">
                        <path d="M111.861,20.955C104.72,20.955 101.071,26.575 101.071,35.044C101.071,43.048 105.017,49.056 111.861,49.056C119.602,49.056 122.504,41.972 122.504,35.044C122.498,27.808 118.852,20.955 111.859,20.955M92.886,-0.06L101.369,-0.06L101.369,20.261L101.519,20.261C103.826,16.414 108.662,14.026 112.979,14.026C125.107,14.026 130.988,23.575 130.988,35.201C130.988,45.897 125.779,55.982 114.392,55.982C109.183,55.982 103.602,54.677 101.071,49.44L100.923,49.44L100.923,54.909L92.886,54.909L92.886,-0.06"/>
                    </clipPath>
                    <g clip-path="url(#_clip1)">
                        <g id="g38">
                            <rect id="path44" x="90.94" y="-2.006" width="41.995" height="59.934" style="fill:rgb(240,240,240);"/>
                        </g>
                    </g>
                </g>
            </g>
        </g>
        <g id="C">
            <g id="g48">
                <g>
                    <clipPath id="_clip2">
                        <path d="M162.274,28.425C161.604,23.575 158.182,20.955 153.494,20.955C149.101,20.955 142.926,23.343 142.926,35.43C142.926,42.052 145.753,49.058 153.121,49.058C158.032,49.058 161.454,45.666 162.274,39.97L170.757,39.97C169.194,50.286 163.019,55.982 153.121,55.982C141.065,55.982 134.442,47.131 134.442,35.43C134.442,23.421 140.768,14.029 153.419,14.029C162.348,14.029 169.941,18.647 170.757,28.425L162.274,28.425"/>
                    </clipPath>
                    <g clip-path="url(#_clip2)">
                        <g id="g54">
                            <rect id="path60" x="132.496" y="12.083" width="40.207" height="45.845" style="fill:rgb(240,240,240);"/>
                        </g>
                    </g>
                </g>
            </g>
        </g>
        <g id="Parallelogram">
            <g id="g64">
                <g>
                    <clipPath id="_clip3">
                        <path d="M63.227,54.789L-0.4,54.789L29.314,-0.06L92.941,-0.06L63.227,54.789"/>
                    </clipPath>
                    <g clip-path="url(#_clip3)">
                        <g id="g70">
                            <rect id="path76" x="-2.346" y="-2.006" width="97.233" height="58.74" style="fill:rgb(240,240,240);"/>
                        </g>
                    </g>
                </g>
            </g>
        </g>
    </g>
</svg>
