<?xml version="1.0" encoding="UTF-8" standalone="no"?><!DOCTYPE svg PUBLIC "-//W3C//DTD SVG 1.1//EN" "http://www.w3.org/Graphics/SVG/1.1/DTD/svg11.dtd"><svg width="100%" height="100%" viewBox="0 0 172 172" version="1.1" xmlns="http://www.w3.org/2000/svg" xmlns:xlink="http://www.w3.org/1999/xlink" xml:space="preserve" xmlns:serif="http://www.serif.com/" style="fill-rule:evenodd;clip-rule:evenodd;stroke-linejoin:round;stroke-miterlimit:2;"><path id="Tumblr" d="M92.022,-0l0,43.261l40.608,-0l-0,26.876l-40.608,-0l0,43.904c0,9.921 0.515,16.284 1.565,19.104c1.057,2.806 3.001,5.056 5.873,6.746c3.79,2.274 8.109,3.415 12.991,3.415c8.666,-0 17.282,-2.834 25.85,-8.461l0,26.998c-7.309,3.45 -13.94,5.866 -19.865,7.257c-5.922,1.384 -12.345,2.076 -19.233,2.076c-7.817,0 -14.73,-0.984 -20.746,-2.966c-6.019,-1.982 -11.144,-4.802 -15.394,-8.446c-4.242,-3.658 -7.187,-7.549 -8.828,-11.68c-1.635,-4.107 -2.455,-10.078 -2.455,-17.902l-0,-60.045l-18.927,-0l-0,-24.233c6.728,-2.174 12.497,-5.31 17.275,-9.382c4.805,-4.082 8.651,-8.978 11.544,-14.699c2.904,-5.72 4.903,-12.987 5.999,-21.823l24.351,-0Z" style="fill:#f0f0f0;fill-rule:nonzero;"/></svg>