<?xml version="1.0" encoding="UTF-8" standalone="no"?><!DOCTYPE svg PUBLIC "-//W3C//DTD SVG 1.1//EN" "http://www.w3.org/Graphics/SVG/1.1/DTD/svg11.dtd"><svg width="100%" height="100%" viewBox="0 0 172 172" version="1.1" xmlns="http://www.w3.org/2000/svg" xmlns:xlink="http://www.w3.org/1999/xlink" xml:space="preserve" xmlns:serif="http://www.serif.com/" style="fill-rule:evenodd;clip-rule:evenodd;stroke-linejoin:round;stroke-miterlimit:2;"><path id="Twitter" d="M171.154,32.509c-6.299,2.794 -13.068,4.681 -20.168,5.53c7.25,-4.347 12.823,-11.226 15.44,-19.426c-6.776,4.024 -14.292,6.95 -22.291,8.524c-6.411,-6.83 -15.541,-11.092 -25.639,-11.092c-19.391,-0 -35.113,15.725 -35.113,35.113c0,2.759 0.31,5.434 0.906,8.002c-29.178,-1.461 -55.049,-15.439 -72.376,-36.69c-3.018,5.192 -4.749,11.222 -4.749,17.657c0,12.179 6.197,22.934 15.613,29.226c-5.75,-0.177 -11.163,-1.768 -15.899,-4.394l0,0.442c0,17.01 12.108,31.206 28.164,34.432c-2.944,0.797 -6.054,1.237 -9.253,1.237c-2.259,-0 -4.463,-0.225 -6.602,-0.637c4.466,13.954 17.432,24.099 32.796,24.392c-12.012,9.416 -27.151,15.03 -43.613,15.03c-2.831,0 -5.624,-0.173 -8.37,-0.49c15.538,9.951 33.996,15.766 53.837,15.766c64.581,0 99.898,-53.496 99.898,-99.902c0,-1.516 -0.037,-3.032 -0.095,-4.548c6.848,-4.943 12.796,-11.126 17.514,-18.172Z" style="fill:#f0f0f0;fill-rule:nonzero;"/></svg>