<svg viewBox="0 0 172 172" xmlns="http://www.w3.org/2000/svg" xml:space="preserve" style="fill-rule:evenodd;clip-rule:evenodd;stroke-linejoin:round;stroke-miterlimit:2"><path d="M2.815 56.907H38.32v114.061H2.815zM20.579.208c11.35 0 20.556 9.216 20.556 20.549 0 11.343-9.206 20.559-20.556 20.559C9.186 41.316 0 32.1 0 20.757 0 9.424 9.186.208 20.579.208m39.996 56.699h34.003v15.59h.481c4.728-8.976 16.308-18.425 33.564-18.425 35.89 0 42.531 23.614 42.531 54.331v62.565h-35.438v-55.456c0-13.24-.261-30.256-18.439-30.256-18.462 0-21.274 14.408-21.274 29.277v56.435H60.575z" style="fill:#f0f0f0;fill-rule:nonzero"/></svg>