<svg viewBox="0 0 690 673" xmlns="http://www.w3.org/2000/svg" xml:space="preserve" style="fill-rule:evenodd;clip-rule:evenodd;stroke-linejoin:round;stroke-miterlimit:2"><path d="M414.937 294.248c-14.457 0-26.178 11.718-26.178 26.181 0 11.561 7.498 21.371 17.903 24.836 1.31.238 1.788-.572 1.788-1.263 0-.622-.021-2.268-.036-4.454-7.282 1.582-8.817-3.507-8.817-3.507-1.191-3.024-2.908-3.827-2.908-3.827-2.376-1.627.182-1.593.182-1.593 2.629.185 4.01 2.697 4.01 2.697 2.333 4.002 6.126 2.842 7.62 2.174.235-1.694.911-2.842 1.659-3.498-5.814-.659-11.924-2.91-11.924-12.94 0-2.853 1.021-5.193 2.692-7.021-.267-.664-1.165-3.324.259-6.93 0 0 2.195-.703 7.198 2.686 2.088-.582 4.33-.873 6.554-.883 2.224.01 4.464.301 6.552.883 5.001-3.389 7.196-2.686 7.196-2.686 1.426 3.606.528 6.266.258 6.93 1.675 1.828 2.691 4.168 2.691 7.021 0 10.059-6.123 12.272-11.954 12.92.939.809 1.778 2.403 1.778 4.846 0 3.5-.032 6.322-.032 7.182 0 .699.474 1.511 1.801 1.255 10.392-3.464 17.886-13.271 17.886-24.828 0-14.463-11.717-26.181-26.178-26.181" style="fill:#f0f0f0;fill-rule:nonzero" transform="translate(-5117.809 -3873.623)scale(13.16447)"/></svg>