<svg viewBox="0 0 172 56" xmlns="http://www.w3.org/2000/svg" xml:space="preserve" style="fill-rule:evenodd;clip-rule:evenodd;stroke-linejoin:round;stroke-miterlimit:2"><clipPath id="a"><path d="M111.861 20.955c-7.141 0-10.79 5.62-10.79 14.089 0 8.004 3.946 14.012 10.79 14.012 7.741 0 10.643-7.084 10.643-14.012-.006-7.236-3.652-14.089-10.645-14.089M92.886-.06h8.483v20.321h.15c2.307-3.847 7.143-6.235 11.46-6.235 12.128 0 18.009 9.549 18.009 21.175 0 10.696-5.209 20.781-16.596 20.781-5.209 0-10.79-1.305-13.321-6.542h-.148v5.469h-8.037z"/></clipPath><g clip-path="url(#a)"><path style="fill:#f0f0f0" d="M90.94-2.006h41.995v59.934H90.94z"/></g><clipPath id="b"><path d="M162.274 28.425c-.67-4.85-4.092-7.47-8.78-7.47-4.393 0-10.568 2.388-10.568 14.475 0 6.622 2.827 13.628 10.195 13.628 4.911 0 8.333-3.392 9.153-9.088h8.483c-1.563 10.316-7.738 16.012-17.636 16.012-12.056 0-18.679-8.851-18.679-20.552 0-12.009 6.326-21.401 18.977-21.401 8.929 0 16.522 4.618 17.338 14.396z"/></clipPath><g clip-path="url(#b)"><path style="fill:#f0f0f0" d="M132.496 12.083h40.207v45.845h-40.207z"/></g><clipPath id="c"><path d="M63.227 54.789H-.4L29.314-.06h63.627z"/></clipPath><g clip-path="url(#c)"><path style="fill:#f0f0f0" d="M-2.346-2.006h97.233v58.74H-2.346z"/></g></svg>