<?xml version="1.0" encoding="UTF-8" standalone="no"?>
<!DOCTYPE svg PUBLIC "-//W3C//DTD SVG 1.1//EN" "http://www.w3.org/Graphics/SVG/1.1/DTD/svg11.dtd">
<svg width="100%" height="100%" viewBox="0 0 172 140" version="1.1" xmlns="http://www.w3.org/2000/svg" xmlns:xlink="http://www.w3.org/1999/xlink" xml:space="preserve" xmlns:serif="http://www.serif.com/" style="fill-rule:evenodd;clip-rule:evenodd;stroke-linejoin:round;stroke-miterlimit:2;">
    <path id="Twitter" d="M170.654,16.466C164.354,19.26 157.584,21.147 150.482,21.996C157.734,17.649 163.308,10.77 165.925,2.569C159.148,6.593 151.63,9.52 143.63,11.094C137.217,4.263 128.086,0.001 117.985,0.001C98.591,0.001 82.865,15.727 82.865,35.116C82.865,37.875 83.175,40.551 83.772,43.119C54.588,41.658 28.711,27.679 11.381,6.426C8.362,11.619 6.631,17.649 6.631,24.085C6.631,36.264 12.829,47.02 22.247,53.312C16.496,53.135 11.082,51.544 6.345,48.918L6.345,49.36C6.345,66.371 18.455,80.568 34.514,83.794C31.57,84.591 28.459,85.031 25.26,85.031C23,85.031 20.796,84.806 18.656,84.394C23.123,98.349 36.092,108.495 51.459,108.788C39.445,118.205 24.302,123.819 7.837,123.819C5.005,123.819 2.212,123.646 -0.535,123.329C15.007,133.28 33.468,139.096 53.313,139.096C117.907,139.096 153.232,85.596 153.232,39.188C153.232,37.671 153.195,36.155 153.137,34.639C159.986,29.696 165.935,23.513 170.654,16.466Z" style="fill:rgb(240,240,240);fill-rule:nonzero;"/>
</svg>
