<?xml version="1.0" encoding="UTF-8" standalone="no"?><!DOCTYPE svg PUBLIC "-//W3C//DTD SVG 1.1//EN" "http://www.w3.org/Graphics/SVG/1.1/DTD/svg11.dtd"><svg width="100%" height="100%" viewBox="0 0 172 172" version="1.1" xmlns="http://www.w3.org/2000/svg" xmlns:xlink="http://www.w3.org/1999/xlink" xml:space="preserve" xmlns:serif="http://www.serif.com/" style="fill-rule:evenodd;clip-rule:evenodd;stroke-linejoin:round;stroke-miterlimit:2;"><g id="LinkedIn"><path d="M2.815,56.907l35.505,-0l-0,114.061l-35.505,0l-0,-114.061Zm17.764,-56.699c11.35,0 20.556,9.216 20.556,20.549c-0,11.343 -9.206,20.559 -20.556,20.559c-11.393,0 -20.579,-9.216 -20.579,-20.559c0,-11.333 9.186,-20.549 20.579,-20.549Z" style="fill:#f0f0f0;fill-rule:nonzero;"/><path d="M60.575,56.907l34.003,-0l-0,15.59l0.481,-0c4.728,-8.976 16.308,-18.425 33.564,-18.425c35.89,-0 42.531,23.614 42.531,54.331l0,62.565l-35.438,0l-0,-55.456c-0,-13.24 -0.261,-30.256 -18.439,-30.256c-18.462,-0 -21.274,14.408 -21.274,29.277l0,56.435l-35.428,0l0,-114.061Z" style="fill:#f0f0f0;fill-rule:nonzero;"/></g></svg>