<svg viewBox="0 0 172 140" xmlns="http://www.w3.org/2000/svg" xml:space="preserve" style="fill-rule:evenodd;clip-rule:evenodd;stroke-linejoin:round;stroke-miterlimit:2"><path d="M170.654 16.466a70.2 70.2 0 0 1-20.172 5.53c7.252-4.347 12.826-11.226 15.443-19.427a70.2 70.2 0 0 1-22.295 8.525A35.1 35.1 0 0 0 117.985.001c-19.394 0-35.12 15.726-35.12 35.115 0 2.759.31 5.435.907 8.003-29.184-1.461-55.061-15.44-72.391-36.693a35 35 0 0 0-4.75 17.659c0 12.179 6.198 22.935 15.616 29.227a35 35 0 0 1-15.902-4.394v.442c0 17.011 12.11 31.208 28.169 34.434a35.4 35.4 0 0 1-9.254 1.237c-2.26 0-4.464-.225-6.604-.637 4.467 13.955 17.436 24.101 32.803 24.394-12.014 9.417-27.157 15.031-43.622 15.031-2.832 0-5.625-.173-8.372-.49 15.542 9.951 34.003 15.767 53.848 15.767 64.594 0 99.919-53.5 99.919-99.908 0-1.517-.037-3.033-.095-4.549a71.5 71.5 0 0 0 17.517-18.173" style="fill:#f0f0f0;fill-rule:nonzero"/></svg>