<svg viewBox="0 0 172 172" xmlns="http://www.w3.org/2000/svg" xml:space="preserve" style="fill-rule:evenodd;clip-rule:evenodd;stroke-miterlimit:10"><path d="m51.166 127.45 14.117-14.117 5.736 5.736-14.118 14.117zm-7.711-7.71 14.118-14.118 5.735 5.735-14.118 14.118zm9.886-29.529 14.118-14.118 5.736 5.736-14.118 14.118zm-7.71-7.711 14.117-14.117 5.735 5.735-14.117 14.117zm44.935 2.584 14.116-14.117 5.548 5.548-14.116 14.117zm-7.899-7.897L96.784 63.07l5.735 5.735-14.116 14.117zm6.882-35.513 14.118-14.118 5.736 5.736L95.285 47.41zm-7.71-7.71 14.117-14.117 5.735 5.735-14.116 14.117z" style="fill:#f2f2f6;stroke:#f1f2f3;stroke-width:.4px"/><path d="m60.917 123.083 31.96 31.957" style="fill:none;fill-rule:nonzero;stroke:#f1f2f3;stroke-width:1px;stroke-linecap:round"/><path d="m63.47 86.029 49.209 49.207m-12.392-54.741 32.83 32.83m-33.84-76.192 55.016 55.018" style="fill:none;fill-rule:nonzero;stroke:#f1f2f3;stroke-width:1px"/><path d="m16.121 78.287 36.864 36.864" style="fill:none;fill-rule:nonzero;stroke:#f1f2f3;stroke-width:1px;stroke-linecap:round"/><path d="m35.924 58.482 18.727 18.726m1.712-40.637 36.436 36.436m-15.258-57.61 14.024 14.027" style="fill:none;fill-rule:nonzero;stroke:#f1f2f3;stroke-width:1px"/><path d="M75.749 6.962c5.412-5.415 14.248-5.416 19.661 0l68.799 68.794c5.404 5.408 5.404 14.254 0 19.663L95.41 164.218c-5.413 5.41-14.25 5.41-19.663 0L6.94 95.419c-5.397-5.409-5.397-14.256 0-19.663z" style="fill:none;fill-rule:nonzero;stroke:#f1f2f3;stroke-width:4.5px"/></svg>