<svg viewBox="0 0 172 172" xmlns="http://www.w3.org/2000/svg" xml:space="preserve" style="fill-rule:evenodd;clip-rule:evenodd;stroke-miterlimit:10"><path d="m51.166 127.45 14.117-14.117 5.736 5.736-14.118 14.117zm-7.711-7.71 14.118-14.118 5.735 5.735-14.118 14.118zm9.886-29.529 14.118-14.118 5.736 5.736-14.118 14.118zm-7.71-7.711 14.117-14.117 5.735 5.735-14.117 14.117zm44.935 2.584 14.116-14.117 5.548 5.548-14.116 14.117zm-7.899-7.897L96.784 63.07l5.735 5.735-14.116 14.117zm6.882-35.513 14.118-14.118 5.736 5.736L95.285 47.41zm-7.71-7.71 14.117-14.117 5.735 5.735-14.116 14.117z" style="fill:#f2f2f6;stroke:#f1f2f3;stroke-width:.4px"/><path d="m60.917 123.083 31.96 31.957" style="fill:none;fill-rule:nonzero;stroke:#f1f2f3;stroke-width:1px;stroke-linecap:round"/><path d="m63.47 86.029 49.209 49.207m-12.392-54.741 32.83 32.83m-33.84-76.192 55.016 55.018" style="fill:none;fill-rule:nonzero;stroke:#f1f2f3;stroke-width:1px"/><path d="m16.121 78.287 36.864 36.864" style="fill:none;fill-rule:nonzero;stroke:#f1f2f3;stroke-width:1px;stroke-linecap:round"/><path d="m35.924 58.482 18.727 18.726m1.712-40.637 36.436 36.436m-15.258-57.61 14.024 14.027" style="fill:none;fill-rule:nonzero;stroke:#f1f2f3;stroke-width:1px"/><path d="M75.803 7.397c5.382-5.385 14.17-5.387 19.552 0l68.419 68.413c5.375 5.378 5.375 14.175 0 19.555l-68.419 68.419c-5.382 5.38-14.171 5.38-19.553 0L7.375 95.365c-5.368-5.38-5.368-14.178 0-19.555z" style="fill:none;fill-rule:nonzero;stroke:#f1f2f3;stroke-width:3px"/><path d="M5.96 74.397 74.389 5.982c6.161-6.163 16.22-6.165 22.381 0l68.419 68.414c6.151 6.156 6.151 16.225 0 22.383l-68.42 68.419c-6.16 6.158-16.22 6.158-22.381 0L5.96 96.779l-.001-.001c-6.143-6.157-6.143-16.227.001-22.381m69.843-67L7.375 75.81c-5.368 5.377-5.368 14.175 0 19.555l68.427 68.419c5.382 5.38 14.171 5.38 19.553 0l68.419-68.419c5.375-5.38 5.375-14.177 0-19.555L95.355 7.397c-5.382-5.387-14.17-5.385-19.552 0" style="fill:#f1f2f3"/></svg>