<?xml version="1.0" encoding="UTF-8" standalone="no"?><!DOCTYPE svg PUBLIC "-//W3C//DTD SVG 1.1//EN" "http://www.w3.org/Graphics/SVG/1.1/DTD/svg11.dtd"><svg width="100%" height="100%" viewBox="0 0 172 172" version="1.1" xmlns="http://www.w3.org/2000/svg" xmlns:xlink="http://www.w3.org/1999/xlink" xml:space="preserve" xmlns:serif="http://www.serif.com/" style="fill-rule:evenodd;clip-rule:evenodd;stroke-miterlimit:10;"><g id="Logo"><path d="M51.166,127.45l14.117,-14.117l5.736,5.736l-14.118,14.117l-5.735,-5.736Z" style="fill:#f2f2f6;stroke:#f1f2f3;stroke-width:0.4px;"/><path d="M43.455,119.74l14.118,-14.118l5.735,5.735l-14.118,14.118l-5.735,-5.735Z" style="fill:#f2f2f6;stroke:#f1f2f3;stroke-width:0.4px;"/><path d="M53.341,90.211l14.118,-14.118l5.736,5.736l-14.118,14.118l-5.736,-5.736Z" style="fill:#f2f2f6;stroke:#f1f2f3;stroke-width:0.4px;"/><path d="M45.631,82.5l14.117,-14.117l5.735,5.735l-14.117,14.117l-5.735,-5.735Z" style="fill:#f2f2f6;stroke:#f1f2f3;stroke-width:0.4px;"/><path d="M90.566,85.084l14.116,-14.117l5.548,5.548l-14.116,14.117l-5.548,-5.548Z" style="fill:#f2f2f6;stroke:#f1f2f3;stroke-width:0.4px;"/><path d="M82.667,77.187l14.117,-14.117l5.735,5.735l-14.116,14.117l-5.736,-5.735Z" style="fill:#f2f2f6;stroke:#f1f2f3;stroke-width:0.4px;"/><path d="M89.549,41.674l14.118,-14.118l5.736,5.736l-14.118,14.118l-5.736,-5.736Z" style="fill:#f2f2f6;stroke:#f1f2f3;stroke-width:0.4px;"/><path d="M81.839,33.964l14.117,-14.117l5.735,5.735l-14.116,14.117l-5.736,-5.735Z" style="fill:#f2f2f6;stroke:#f1f2f3;stroke-width:0.4px;"/><path d="M60.917,123.083l31.96,31.957" style="fill:none;fill-rule:nonzero;stroke:#f1f2f3;stroke-width:1px;stroke-linecap:round;"/><path d="M63.47,86.029l49.209,49.207" style="fill:none;fill-rule:nonzero;stroke:#f1f2f3;stroke-width:1px;"/><path d="M100.287,80.495l32.83,32.83" style="fill:none;fill-rule:nonzero;stroke:#f1f2f3;stroke-width:1px;"/><path d="M99.277,37.133l55.016,55.018" style="fill:none;fill-rule:nonzero;stroke:#f1f2f3;stroke-width:1px;"/><path d="M16.121,78.287l36.864,36.864" style="fill:none;fill-rule:nonzero;stroke:#f1f2f3;stroke-width:1px;stroke-linecap:round;"/><path d="M35.924,58.482l18.727,18.726" style="fill:none;fill-rule:nonzero;stroke:#f1f2f3;stroke-width:1px;"/><path d="M56.363,36.571l36.436,36.436" style="fill:none;fill-rule:nonzero;stroke:#f1f2f3;stroke-width:1px;"/><path d="M77.541,15.397l14.024,14.027" style="fill:none;fill-rule:nonzero;stroke:#f1f2f3;stroke-width:1px;"/><path d="M75.749,6.962c5.412,-5.415 14.248,-5.416 19.661,0l68.799,68.794c5.404,5.408 5.404,14.254 -0,19.663l-68.799,68.799c-5.413,5.41 -14.25,5.41 -19.663,0l-68.807,-68.799c-5.397,-5.409 -5.397,-14.256 0,-19.663l68.809,-68.794Z" style="fill:none;fill-rule:nonzero;stroke:#f1f2f3;stroke-width:4.5px;"/></g></svg>