<?xml version="1.0" encoding="UTF-8" standalone="no"?><!DOCTYPE svg PUBLIC "-//W3C//DTD SVG 1.1//EN" "http://www.w3.org/Graphics/SVG/1.1/DTD/svg11.dtd"><svg width="100%" height="100%" viewBox="0 0 86 86" version="1.1" xmlns="http://www.w3.org/2000/svg" xmlns:xlink="http://www.w3.org/1999/xlink" xml:space="preserve" xmlns:serif="http://www.serif.com/" style="fill-rule:evenodd;clip-rule:evenodd;stroke-miterlimit:10;"><g id="Mixer"><path d="M30.622,57.973l5.303,-5.302l2.154,2.154l-5.302,5.303l-2.155,-2.155Z" style="fill:#f2f2f6;stroke:#f1f2f3;stroke-width:0.2px;"/><path d="M27.726,55.078l5.303,-5.303l2.154,2.154l-5.303,5.303l-2.154,-2.154Z" style="fill:#f2f2f6;stroke:#f1f2f3;stroke-width:0.2px;"/><path d="M31.439,43.987l5.303,-5.303l2.154,2.155l-5.302,5.302l-2.155,-2.154Z" style="fill:#f2f2f6;stroke:#f1f2f3;stroke-width:0.2px;"/><path d="M28.544,41.091l5.302,-5.302l2.154,2.154l-5.302,5.302l-2.154,-2.154Z" style="fill:#f2f2f6;stroke:#f1f2f3;stroke-width:0.2px;"/><path d="M45.42,42.061l5.302,-5.302l2.084,2.084l-5.302,5.302l-2.084,-2.084Z" style="fill:#f2f2f6;stroke:#f1f2f3;stroke-width:0.2px;"/><path d="M42.454,39.095l5.302,-5.302l2.154,2.154l-5.302,5.302l-2.154,-2.154Z" style="fill:#f2f2f6;stroke:#f1f2f3;stroke-width:0.2px;"/><path d="M45.038,25.757l5.303,-5.302l2.154,2.154l-5.302,5.303l-2.155,-2.155Z" style="fill:#f2f2f6;stroke:#f1f2f3;stroke-width:0.2px;"/><path d="M42.143,22.862l5.302,-5.302l2.154,2.154l-5.302,5.302l-2.154,-2.154Z" style="fill:#f2f2f6;stroke:#f1f2f3;stroke-width:0.2px;"/><path d="M34.285,56.333l12.003,12.003" style="fill:none;fill-rule:nonzero;stroke:#f1f2f3;stroke-width:0.3px;stroke-linecap:round;"/><path d="M35.244,42.416l18.482,18.482" style="fill:none;fill-rule:nonzero;stroke:#f1f2f3;stroke-width:0.3px;"/><path d="M49.072,40.338l12.33,12.33" style="fill:none;fill-rule:nonzero;stroke:#f1f2f3;stroke-width:0.3px;"/><path d="M48.692,24.052l20.663,20.664" style="fill:none;fill-rule:nonzero;stroke:#f1f2f3;stroke-width:0.3px;"/><path d="M17.46,39.508l13.846,13.846" style="fill:none;fill-rule:nonzero;stroke:#f1f2f3;stroke-width:0.3px;stroke-linecap:round;"/><path d="M24.898,32.07l7.033,7.033" style="fill:none;fill-rule:nonzero;stroke:#f1f2f3;stroke-width:0.3px;"/><path d="M32.574,23.841l13.685,13.684" style="fill:none;fill-rule:nonzero;stroke:#f1f2f3;stroke-width:0.3px;"/><path d="M40.528,15.888l5.268,5.268" style="fill:none;fill-rule:nonzero;stroke:#f1f2f3;stroke-width:0.3px;"/><path d="M39.876,12.883c2.021,-2.022 5.322,-2.023 7.343,0l25.697,25.695c2.019,2.02 2.019,5.324 0,7.345l-25.697,25.697c-2.021,2.02 -5.322,2.02 -7.344,-0l-25.7,-25.697c-2.016,-2.021 -2.016,-5.325 0,-7.345l25.701,-25.695Z" style="fill:none;fill-rule:nonzero;stroke:#f1f2f3;stroke-width:1.5px;"/><path d="M39.489,9.788c2.234,-2.236 5.884,-2.237 8.118,-0.001l28.406,28.404c2.231,2.233 2.231,5.886 -0,8.118l-28.406,28.406c-2.234,2.234 -5.884,2.234 -8.118,0l-28.409,-28.406c-2.229,-2.232 -2.229,-5.886 -0.001,-8.118l28.41,-28.403Z" style="fill:none;fill-rule:nonzero;stroke:#a8a9ac;stroke-width:1px;"/><path d="M39.074,7.344c2.414,-2.417 6.359,-2.417 8.774,-0.001l30.706,30.704c2.411,2.413 2.411,6.362 -0,8.775l-30.706,30.705c-2.415,2.415 -6.36,2.415 -8.774,0l-30.709,-30.705c-2.409,-2.413 -2.409,-6.362 -0.001,-8.775l30.71,-30.703Z" style="fill:none;fill-rule:nonzero;stroke:#6e7071;stroke-width:1px;"/></g></svg>