<?xml version="1.0" encoding="UTF-8" standalone="no"?><!DOCTYPE svg PUBLIC "-//W3C//DTD SVG 1.1//EN" "http://www.w3.org/Graphics/SVG/1.1/DTD/svg11.dtd"><svg width="100%" height="100%" viewBox="0 0 172 172" version="1.1" xmlns="http://www.w3.org/2000/svg" xmlns:xlink="http://www.w3.org/1999/xlink" xml:space="preserve" xmlns:serif="http://www.serif.com/" style="fill-rule:evenodd;clip-rule:evenodd;stroke-miterlimit:10;"><g id="Logo"><path d="M51.166,127.45l14.117,-14.117l5.736,5.736l-14.118,14.117l-5.735,-5.736Z" style="fill:#f2f2f6;stroke:#f1f2f3;stroke-width:0.4px;"/><path d="M43.455,119.74l14.118,-14.118l5.735,5.735l-14.118,14.118l-5.735,-5.735Z" style="fill:#f2f2f6;stroke:#f1f2f3;stroke-width:0.4px;"/><path d="M53.341,90.211l14.118,-14.118l5.736,5.736l-14.118,14.118l-5.736,-5.736Z" style="fill:#f2f2f6;stroke:#f1f2f3;stroke-width:0.4px;"/><path d="M45.631,82.5l14.117,-14.117l5.735,5.735l-14.117,14.117l-5.735,-5.735Z" style="fill:#f2f2f6;stroke:#f1f2f3;stroke-width:0.4px;"/><path d="M90.566,85.084l14.116,-14.117l5.548,5.548l-14.116,14.117l-5.548,-5.548Z" style="fill:#f2f2f6;stroke:#f1f2f3;stroke-width:0.4px;"/><path d="M82.667,77.187l14.117,-14.117l5.735,5.735l-14.116,14.117l-5.736,-5.735Z" style="fill:#f2f2f6;stroke:#f1f2f3;stroke-width:0.4px;"/><path d="M89.549,41.674l14.118,-14.118l5.736,5.736l-14.118,14.118l-5.736,-5.736Z" style="fill:#f2f2f6;stroke:#f1f2f3;stroke-width:0.4px;"/><path d="M81.839,33.964l14.117,-14.117l5.735,5.735l-14.116,14.117l-5.736,-5.735Z" style="fill:#f2f2f6;stroke:#f1f2f3;stroke-width:0.4px;"/><path d="M60.917,123.083l31.96,31.957" style="fill:none;fill-rule:nonzero;stroke:#f1f2f3;stroke-width:1px;stroke-linecap:round;"/><path d="M63.47,86.029l49.209,49.207" style="fill:none;fill-rule:nonzero;stroke:#f1f2f3;stroke-width:1px;"/><path d="M100.287,80.495l32.83,32.83" style="fill:none;fill-rule:nonzero;stroke:#f1f2f3;stroke-width:1px;"/><path d="M99.277,37.133l55.016,55.018" style="fill:none;fill-rule:nonzero;stroke:#f1f2f3;stroke-width:1px;"/><path d="M16.121,78.287l36.864,36.864" style="fill:none;fill-rule:nonzero;stroke:#f1f2f3;stroke-width:1px;stroke-linecap:round;"/><path d="M35.924,58.482l18.727,18.726" style="fill:none;fill-rule:nonzero;stroke:#f1f2f3;stroke-width:1px;"/><path d="M56.363,36.571l36.436,36.436" style="fill:none;fill-rule:nonzero;stroke:#f1f2f3;stroke-width:1px;"/><path d="M77.541,15.397l14.024,14.027" style="fill:none;fill-rule:nonzero;stroke:#f1f2f3;stroke-width:1px;"/><path d="M75.803,7.397c5.382,-5.385 14.17,-5.387 19.552,-0l68.419,68.413c5.375,5.378 5.375,14.175 0,19.555l-68.419,68.419c-5.382,5.38 -14.171,5.38 -19.553,0l-68.427,-68.419c-5.368,-5.38 -5.368,-14.178 -0,-19.555l68.428,-68.413Z" style="fill:none;fill-rule:nonzero;stroke:#f1f2f3;stroke-width:3px;"/><path id="Outcurve" d="M5.96,74.397l68.429,-68.415c6.161,-6.163 16.22,-6.165 22.381,0l68.419,68.414c6.151,6.156 6.151,16.225 -0,22.383l-68.42,68.419c-6.16,6.158 -16.22,6.158 -22.381,0l-68.428,-68.419l-0.001,-0.001c-6.143,-6.157 -6.143,-16.227 0.001,-22.381Zm69.843,-67l-68.428,68.413c-5.368,5.377 -5.368,14.175 -0,19.555l68.427,68.419c5.382,5.38 14.171,5.38 19.553,0l68.419,-68.419c5.375,-5.38 5.375,-14.177 0,-19.555l-68.419,-68.413c-5.382,-5.387 -14.17,-5.385 -19.552,-0Z" style="fill:#f1f2f3;"/></g></svg>