<svg xmlns="http://www.w3.org/2000/svg" width="108" height="38"><path d="m46.853 6.476 1.289-1.323 3.685 5.18h1.776l-4.43-6.209L53.207 0h-1.959l-4.394 4.522V0h-1.468v10.333h1.468V6.476Z"/><path d="M57.156 10.513c1.737 0 2.995-.863 3.365-2.308l.017-.065-1.302-.308-.016.064c-.212.886-.973 1.393-2.064 1.393-1.287 0-2.18-.913-2.29-2.322h5.826V6.91c.014-.13.03-.386.03-.58 0-2.039-1.516-3.52-3.603-3.52-2.141 0-3.644 1.586-3.644 3.855 0 2.234 1.545 3.855 3.673 3.855m-2.205-4.722c.263-1.143 1.07-1.822 2.176-1.822 1.18 0 1.994.696 2.142 1.822h-4.318Z"/><path d="M63.02 13.05h1.417l3.925-10.13h-1.42L64.82 8.429l-2.11-5.467-.016-.04H61.2l2.915 7.308-1.096 2.82Z"/><path d="M70.948 10.397h1.316l1.682-5.426 1.682 5.426h1.314l2.316-7.476h-1.445l-1.538 5.443-1.679-5.443h-1.3l-1.68 5.443-1.552-5.443h-1.416l2.286 7.43.014.046Z"/><path d="M83.312 2.803c-2.214 0-3.82 1.623-3.82 3.855s1.606 3.855 3.82 3.855c2.214 0 3.838-1.62 3.838-3.855 0-2.234-1.614-3.855-3.838-3.855Zm2.414 3.855c0 1.548-.993 2.617-2.414 2.617-1.421 0-2.412-1.075-2.412-2.617s.993-2.615 2.412-2.615c1.42 0 2.414 1.075 2.414 2.615Z"/><path d="M91.926 2.803c-.853 0-1.752.58-2.237 1.398v-1.28h-1.378v7.476h1.378V7.532c0-2.127.79-3.447 2.062-3.447.317-.002.633.055.928.17l.086.037.082-1.336-.047-.018a2.726 2.726 0 0 0-.874-.135"/><path d="M98.922 3.84a3.133 3.133 0 0 0-2.353-1.037c-2.197 0-3.616 1.514-3.616 3.855 0 2.34 1.425 3.855 3.631 3.855.974 0 1.902-.406 2.337-1.012v.896h1.378V.064h-1.378l.001 3.776Zm.12 2.818c0 1.59-.92 2.617-2.337 2.617-1.418 0-2.336-1.027-2.336-2.617s.918-2.615 2.336-2.615c1.417 0 2.336 1.027 2.336 2.615Z"/><path d="M104.666 5.795c-.845-.205-1.574-.387-1.574-.988 0-.534.487-.851 1.299-.851a1.683 1.683 0 0 1 1.667 1.189l.021.074 1.168-.505-.015-.056c-.314-1.091-1.466-1.855-2.808-1.855-1.593 0-2.661.812-2.661 2.02 0 1.578 1.32 1.912 2.486 2.208.948.24 1.768.447 1.768 1.246 0 .602-.616 1.056-1.431 1.056-.974 0-1.622-.51-1.947-1.514l-.022-.07-1.193.52.017.056c.331 1.059 1.33 2.188 3.145 2.188 1.637 0 2.78-.926 2.78-2.251 0-1.815-1.491-2.177-2.697-2.467"/><path d="M49.022 18.87c-1.22-.327-2.276-.61-2.276-1.563 0-.89.765-1.422 2.046-1.422 1.244 0 2.107.656 2.311 1.754l.014.078 1.343-.515v-.052c-.268-1.548-1.738-2.577-3.658-2.577-2.077 0-3.528 1.124-3.528 2.734 0 1.982 1.739 2.493 3.275 2.942 1.318.387 2.562.75 2.562 1.969 0 .979-.884 1.61-2.25 1.61-1.367 0-2.407-.925-2.606-2.305l-.01-.077-1.392.45v.057c.345 1.905 1.947 3.186 3.968 3.186 2.269 0 3.791-1.18 3.791-2.937 0-2.373-1.99-2.901-3.59-3.333Z"/><path d="M57.811 23.703c-.278.134-.584.2-.893.194-.649 0-1.02-.387-1.02-1.087v-4.03h1.98v-1.224h-1.97v-2.24h-1.38v2.23H53.15v1.225h1.379v3.986c0 1.513.821 2.382 2.252 2.382a3.5 3.5 0 0 0 1.18-.178l.049-.018-.101-1.282-.098.042Z"/><path d="M64.171 20.833c0 1.884-.841 3.052-2.194 3.052-.974 0-1.606-.642-1.606-1.638v-4.7h-1.379v4.926c0 1.567 1.114 2.66 2.707 2.66a2.953 2.953 0 0 0 2.472-1.339v1.223h1.379V17.54h-1.38v3.292Z"/><path d="M72.721 18.465a3.14 3.14 0 0 0-2.353-1.035c-2.197 0-3.616 1.513-3.616 3.855 0 2.343 1.425 3.854 3.63 3.854.982 0 1.903-.406 2.335-1.012v.896h1.379V14.577h-1.379l.004 3.888Zm.117 2.82c0 1.589-.917 2.616-2.336 2.616-1.42 0-2.337-1.027-2.337-2.616 0-1.588.92-2.617 2.337-2.617 1.417 0 2.336 1.027 2.336 2.617Z"/><path d="M76.382 14.525a.943.943 0 0 0-.85.59.926.926 0 0 0 .215 1.007.94.94 0 0 0 1.597-.657.92.92 0 0 0-.593-.877.94.94 0 0 0-.37-.063Z"/><path d="M77.078 17.546h-1.379v7.477h1.379v-7.477Z"/><path d="M82.205 17.43c-2.214 0-3.822 1.621-3.822 3.855 0 2.235 1.608 3.854 3.822 3.854 2.213 0 3.835-1.621 3.835-3.854 0-2.232-1.614-3.855-3.835-3.855Zm2.412 3.855c0 1.548-.993 2.616-2.412 2.616-1.42 0-2.415-1.076-2.415-2.616s.993-2.617 2.415-2.617c1.421 0 2.412 1.076 2.412 2.617Z"/><path d="M90.015 20.42c-.843-.202-1.571-.386-1.571-.986 0-.534.485-.853 1.299-.853a1.696 1.696 0 0 1 1.666 1.19l.02.073 1.168-.504-.016-.055c-.311-1.093-1.466-1.855-2.805-1.855-1.593 0-2.664.81-2.664 2.018 0 1.58 1.322 1.915 2.488 2.209.949.242 1.766.449 1.766 1.246 0 .601-.615 1.056-1.429 1.056-.973 0-1.622-.509-1.947-1.515l-.023-.067-1.192.518.018.056c.33 1.058 1.33 2.188 3.144 2.188 1.636 0 2.779-.925 2.779-2.25 0-1.814-1.492-2.178-2.697-2.468"/><path d="M45.998 30.292h-.578v6.004h.578v-6.004Z"/><path d="M47.285 31.973h.543v.9a1.358 1.358 0 0 1 1.34-.968c.724 0 1.32.344 1.458.967a1.521 1.521 0 0 1 1.39-.967c.925 0 1.503.567 1.503 1.51v2.883h-.545v-2.815c0-.642-.37-1.08-1.043-1.08-.812 0-1.262.738-1.262 1.74v2.153h-.543v-2.814c0-.643-.362-1.082-1.036-1.082-.812 0-1.262.74-1.262 1.741v2.153h-.543v-4.321Z"/><path d="M58.096 33.447v2.849h-.543v-.79a1.673 1.673 0 0 1-1.538.858c-.88 0-1.476-.515-1.476-1.27 0-.831.699-1.278 2.142-1.423l.872-.087v-.12c0-.652-.475-1.064-1.168-1.064-.666 0-1.124.387-1.201 1.022l-.526-.103c.128-.85.82-1.416 1.727-1.416 1.008 0 1.717.627 1.717 1.548m-.543.849v-.258l-.855.088c-1.053.11-1.589.437-1.589.967 0 .462.39.773.949.773.942 0 1.495-.58 1.495-1.57"/><path d="M63.223 31.973v4.159c0 1.064-.812 1.793-1.958 1.793-1.01 0-1.78-.532-1.89-1.294l.542-.095c.035.522.596.9 1.348.9.827 0 1.423-.505 1.423-1.252v-.67c-.195.387-.812.678-1.494.678-1.372 0-2.096-.952-2.096-2.144 0-1.191.724-2.145 2.089-2.145a1.884 1.884 0 0 1 1.5.73v-.66h.536Zm-.483 2.075c0-.996-.603-1.648-1.528-1.648s-1.536.652-1.536 1.648c0 .996.603 1.646 1.536 1.646s1.528-.651 1.528-1.646Z"/><path d="M65.03 31.973h-.544v4.323h.543v-4.323Z"/><path d="M66.291 31.973h.543v.9a1.775 1.775 0 0 1 1.558-.968 1.468 1.468 0 0 1 1.106.417 1.449 1.449 0 0 1 .432 1.094v2.882h-.545v-2.815a1.003 1.003 0 0 0-.647-1.015 1.02 1.02 0 0 0-.424-.066c-.88 0-1.476.774-1.476 2v1.896h-.543l-.004-4.325Z"/><path d="M75.018 34.186h-3.535c0 1.004.638 1.68 1.518 1.68.744 0 1.262-.342 1.39-.951l.518.102c-.194.857-.905 1.354-1.898 1.354-1.234 0-2.081-.944-2.081-2.23s.847-2.23 2.081-2.23c1.192 0 2.029.832 2.029 2 0 .075 0 .222-.018.282m-.543-.497a1.382 1.382 0 0 0-.468-.943 1.4 1.4 0 0 0-1-.345c-.77 0-1.33.49-1.486 1.288h2.954Z"/><path d="M78.152 30.292h.75l2.142 5.155 2.141-5.155h.752v6.004h-.596v-4.907l-2.029 4.907h-.535l-2.029-4.907v4.907h-.596v-6.004Z"/><path d="M84.965 34.133c0-1.303.907-2.23 2.184-2.23 1.278 0 2.185.927 2.185 2.23 0 1.304-.915 2.23-2.185 2.23s-2.184-.926-2.184-2.23Zm3.798 0c0-1.011-.656-1.74-1.614-1.74-.958 0-1.614.72-1.614 1.74 0 1.022.647 1.741 1.614 1.741.968 0 1.614-.72 1.614-1.74Z"/><path d="M92.176 32.4c-.726 0-1.295.747-1.295 2.223v1.673h-.545v-4.323h.545v.917c.267-.58.845-.987 1.38-.987.176-.001.351.025.518.078l-.033.524a1.547 1.547 0 0 0-.57-.105"/><path d="M97.157 34.186h-3.54c0 1.004.639 1.68 1.519 1.68.742 0 1.26-.342 1.39-.951l.518.102c-.195.857-.907 1.354-1.9 1.354-1.235 0-2.08-.944-2.08-2.23s.845-2.23 2.08-2.23c1.191 0 2.029.832 2.029 2 0 .075 0 .222-.016.282m-.545-.497a1.38 1.38 0 0 0-.468-.944 1.398 1.398 0 0 0-1-.344c-.767 0-1.33.49-1.484 1.288h2.952Z"/><path d="M65.161 30.642a.395.395 0 0 1-.241.374.402.402 0 0 1-.55-.29.394.394 0 0 1 .177-.408.4.4 0 0 1 .225-.063.39.39 0 0 1 .39.387Z"/><path d="M17.534 0H0v17.423h17.534V0Z"/><path d="M17.534 18.873H0v17.423h17.534V18.873Z"/><path d="M18.973 0v17.42a17.62 17.62 0 0 0 6.71-1.325 17.542 17.542 0 0 0 5.69-3.776 17.414 17.414 0 0 0 3.801-5.652A17.323 17.323 0 0 0 36.51 0H18.973Z"/><path d="M18.996 36.296h17.536c0-4.62-1.847-9.052-5.136-12.32a17.595 17.595 0 0 0-12.4-5.103v17.423Z"/></svg>